<svg width="1920" height="1080" viewBox="0 0 1920 1080" fill="none" xmlns="http://www.w3.org/2000/svg">
<g clip-path="url(#clip0)">
<rect width="1920" height="1080" fill="white"/>
<path fill-rule="evenodd" clip-rule="evenodd" d="M669.651 0V60.3C669.651 119.7 669.651 240.3 744.057 360C818.462 479.7 995.292 529.776 924.5 735.5C850 952 1062.91 986 1062.91 1080H988.5L-0.000366211 1080V1019.7C-0.000366211 960.3 -0.000366211 839.7 -0.000366211 720C-0.000366211 600.3 -0.000366211 479.7 -0.000366211 360C-0.000366211 240.3 -0.000366211 119.7 -0.000366211 60.3V0L669.651 0Z" fill="#0099FF"/>
<g opacity="0.5">
<path d="M517.885 209.144L539.552 160.811C540.117 159.551 541.596 158.987 542.856 159.552C544.011 160.07 544.581 161.356 544.233 162.537L544.115 162.856L522.448 211.189C521.883 212.449 520.404 213.013 519.144 212.448C517.989 211.93 517.419 210.644 517.767 209.463L517.885 209.144L539.552 160.811L517.885 209.144ZM498.399 184.232L512.566 170.066C513.542 169.089 515.125 169.089 516.101 170.066C516.989 170.953 517.069 172.342 516.343 173.321L516.101 173.601L503.702 186L516.101 198.399C517.077 199.375 517.077 200.958 516.101 201.934C515.214 202.822 513.825 202.903 512.846 202.177L512.566 201.934L498.399 187.768C497.511 186.88 497.431 185.491 498.157 184.513L498.399 184.232L512.566 170.066L498.399 184.232ZM545.899 170.066C546.786 169.178 548.175 169.097 549.154 169.824L549.434 170.066L563.601 184.232C564.489 185.12 564.569 186.509 563.843 187.487L563.601 187.768L549.434 201.934C548.458 202.911 546.875 202.911 545.899 201.934C545.011 201.047 544.931 199.658 545.657 198.679L545.899 198.399L558.298 186L545.899 173.601C544.923 172.625 544.923 171.042 545.899 170.066Z" fill="#212121"/>
</g>
<g opacity="0.5" clip-path="url(#clip1)">
<path d="M661.237 794.021L660.253 790.347C658.381 783.362 651.176 779.202 644.191 781.074L643.962 781.135C636.977 783.007 632.817 790.212 634.688 797.197L637.755 808.641C639.027 813.391 636.198 818.291 631.449 819.563L631.248 819.617C626.498 820.89 621.599 818.061 620.326 813.311L614.218 790.515C614.023 789.789 613.276 789.357 612.55 789.552C611.823 789.747 611.392 790.494 611.587 791.22L617.695 814.016C619.356 820.217 625.752 823.91 631.953 822.248L632.154 822.194C638.354 820.533 642.047 814.137 640.385 807.936L637.319 796.492C635.836 790.958 639.132 785.249 644.666 783.766L644.896 783.705C650.43 782.222 656.139 785.518 657.621 791.052L658.609 794.738C650.978 797.467 646.579 805.666 648.713 813.629L652.047 826.071C654.294 834.457 662.944 839.451 671.329 837.204L671.61 837.129C677.047 835.672 681.32 831.383 682.761 825.936C682.954 825.209 682.52 824.463 681.793 824.271C681.066 824.079 680.321 824.512 680.128 825.239C678.936 829.745 675.402 833.293 670.905 834.498L670.624 834.573C663.69 836.431 656.536 832.301 654.678 825.366L651.344 812.924C649.599 806.412 653.136 799.707 659.316 797.376L659.718 798.876L662.996 811.11L655.79 813.041C655.063 813.236 654.632 813.983 654.826 814.709C655.021 815.436 655.768 815.867 656.495 815.672L677.81 809.961L679.199 815.144C679.394 815.871 680.141 816.302 680.867 816.108C681.594 815.913 682.025 815.166 681.83 814.439L679.409 805.404C677.262 797.388 669.263 792.477 661.237 794.021ZM665.627 810.405L662.349 798.171L661.944 796.659C668.516 795.497 675.02 799.545 676.778 806.109L677.105 807.33L665.627 810.405V810.405Z" fill="black"/>
</g>
<g opacity="0.5">
<path d="M228.367 868.105L241.527 828.613C242.314 826.253 240.636 823.554 237.787 822.604L158.62 796.222C155.771 795.272 152.809 796.426 152.022 798.786L138.862 838.278C138.075 840.637 139.753 843.337 142.603 844.287L221.769 870.669C224.619 871.618 227.575 870.481 228.367 868.105ZM143.337 839.769L156.498 800.277C156.546 800.132 156.889 800.015 157.309 800.155L236.476 826.537C236.914 826.683 237.095 826.993 237.052 827.122L223.892 866.614C223.843 866.758 223.5 866.876 223.08 866.736L143.913 840.353C143.493 840.213 143.289 839.913 143.337 839.769Z" fill="black"/>
<path d="M164.225 815.944C165.768 816.458 167.386 815.776 167.838 814.419C168.29 813.063 167.405 811.546 165.862 811.032C164.318 810.517 162.701 811.2 162.248 812.556C161.796 813.913 162.681 815.43 164.225 815.944Z" fill="black"/>
<path d="M175.678 819.761C177.221 820.275 178.839 819.592 179.291 818.236C179.743 816.879 178.858 815.363 177.315 814.848C175.771 814.334 174.153 815.017 173.701 816.373C173.249 817.73 174.134 819.246 175.678 819.761Z" fill="black"/>
<path d="M187.112 823.571C188.656 824.086 190.274 823.403 190.726 822.046C191.178 820.69 190.293 819.173 188.749 818.659C187.206 818.144 185.588 818.827 185.136 820.184C184.684 821.54 185.569 823.057 187.112 823.571Z" fill="black"/>
<path d="M198.565 827.388C200.109 827.902 201.727 827.22 202.179 825.863C202.631 824.507 201.746 822.99 200.202 822.476C198.659 821.961 197.041 822.644 196.589 824C196.137 825.357 197.022 826.874 198.565 827.388Z" fill="black"/>
<path d="M210.018 831.205C211.562 831.719 213.18 831.036 213.632 829.68C214.084 828.323 213.199 826.807 211.655 826.292C210.112 825.778 208.494 826.461 208.042 827.817C207.59 829.174 208.475 830.69 210.018 831.205Z" fill="black"/>
<path d="M221.472 835.021C223.015 835.536 224.633 834.853 225.085 833.496C225.537 832.14 224.652 830.623 223.109 830.109C221.565 829.595 219.947 830.277 219.495 831.634C219.043 832.99 219.928 834.507 221.472 835.021Z" fill="black"/>
<path d="M166.488 828.274C168.032 828.789 169.649 828.106 170.102 826.749C170.554 825.393 169.669 823.876 168.125 823.362C166.582 822.847 164.964 823.53 164.512 824.887C164.06 826.243 164.945 827.76 166.488 828.274Z" fill="black"/>
<path d="M177.923 832.085C179.467 832.599 181.084 831.916 181.536 830.56C181.988 829.203 181.104 827.687 179.56 827.172C178.017 826.658 176.399 827.341 175.947 828.697C175.495 830.054 176.38 831.57 177.923 832.085Z" fill="black"/>
<path d="M189.376 835.901C190.919 836.416 192.537 835.733 192.989 834.377C193.441 833.02 192.557 831.503 191.013 830.989C189.47 830.475 187.852 831.157 187.4 832.514C186.948 833.87 187.832 835.387 189.376 835.901Z" fill="black"/>
<path d="M200.811 839.712C202.354 840.226 203.972 839.544 204.424 838.187C204.876 836.831 203.991 835.314 202.448 834.8C200.904 834.285 199.287 834.968 198.835 836.324C198.382 837.681 199.267 839.198 200.811 839.712Z" fill="black"/>
<path d="M213.901 838.616C212.348 838.099 210.737 838.793 210.288 840.141C209.833 841.506 210.729 843.017 212.264 843.529C213.816 844.046 215.428 843.352 215.877 842.004C216.332 840.639 215.453 839.134 213.901 838.616Z" fill="black"/>
<path d="M207.34 848.559L167.41 835.252C166.168 834.838 164.869 835.386 164.505 836.478C164.141 837.57 164.852 838.787 166.094 839.201L206.024 852.508C207.266 852.922 208.565 852.374 208.929 851.282C209.293 850.191 208.582 848.973 207.34 848.559Z" fill="black"/>
</g>
<g clip-path="url(#clip2)">
<path d="M356.077 1010C355.96 1010.46 355.5 1010.73 355.048 1010.61L353.09 1010.11L352.585 1012.06C352.468 1012.52 352.007 1012.79 351.556 1012.67C351.104 1012.55 350.833 1012.09 350.949 1011.64L351.454 1009.68L349.496 1009.18C349.045 1009.06 348.773 1008.6 348.89 1008.15C349.006 1007.7 349.467 1007.43 349.918 1007.54L351.877 1008.05L352.382 1006.09C352.498 1005.64 352.959 1005.37 353.41 1005.48C353.862 1005.6 354.134 1006.06 354.017 1006.51L353.512 1008.47L355.47 1008.98C355.922 1009.09 356.193 1009.55 356.077 1010ZM361.251 1010.47L360.932 1010.39C360.481 1010.27 360.02 1010.54 359.903 1010.99C359.787 1011.44 360.058 1011.9 360.51 1012.02L360.829 1012.1C361.281 1012.22 361.741 1011.95 361.858 1011.5C361.974 1011.04 361.703 1010.58 361.251 1010.47ZM372.801 1023.22C372.791 1022.76 372.404 1022.39 371.938 1022.4C371.472 1022.41 371.102 1022.8 371.113 1023.26C371.146 1024.72 371.801 1026.95 372.403 1028.56C372.503 1028.83 372.726 1029.02 372.983 1029.08C373.145 1029.13 373.321 1029.12 373.49 1029.06C373.926 1028.89 374.148 1028.41 373.985 1027.97C373.3 1026.14 372.824 1024.23 372.801 1023.22ZM349.219 1016.54C348.816 1016.3 348.299 1016.44 348.064 1016.84C347.557 1017.71 346.217 1019.15 344.731 1020.42C344.377 1020.72 344.336 1021.26 344.639 1021.61C344.756 1021.75 344.907 1021.84 345.069 1021.88C345.327 1021.95 345.612 1021.89 345.83 1021.7C347.135 1020.59 348.792 1018.95 349.523 1017.69C349.758 1017.29 349.622 1016.77 349.219 1016.54ZM364.664 1011.35L364.345 1011.27C363.893 1011.15 363.432 1011.42 363.316 1011.87C363.199 1012.32 363.471 1012.78 363.922 1012.9L364.242 1012.98C364.693 1013.1 365.154 1012.83 365.27 1012.38C365.387 1011.93 365.115 1011.46 364.664 1011.35ZM371.824 1017.85C369.869 1017.35 368.689 1015.34 369.193 1013.39C369.698 1011.43 371.698 1010.25 373.653 1010.76C375.608 1011.26 376.788 1013.26 376.284 1015.22C375.779 1017.17 373.778 1018.35 371.824 1017.85ZM374.648 1014.8C374.92 1013.74 374.284 1012.67 373.231 1012.39C372.178 1012.12 371.1 1012.76 370.829 1013.81C370.557 1014.86 371.192 1015.94 372.246 1016.21C373.299 1016.49 374.377 1015.85 374.648 1014.8ZM358.568 1020.9C354.166 1019.78 354.06 1019.88 351.339 1022.49C348.286 1025.41 346.196 1027.14 341.902 1026.03C340.606 1025.7 339.571 1024.88 338.987 1023.72C338.374 1022.51 338.337 1021.03 338.885 1019.67L344.105 1006.74C347.106 999.309 351.283 998.663 355.473 999.513C355.477 999.46 355.485 999.406 355.499 999.353C355.615 998.901 356.076 998.63 356.528 998.746L358.908 999.361C359.36 999.477 359.632 999.938 359.515 1000.39C359.504 1000.43 359.489 1000.48 359.472 1000.52L370.717 1003.42C370.722 1003.37 370.729 1003.33 370.741 1003.29C370.857 1002.83 371.318 1002.56 371.769 1002.68L374.15 1003.29C374.602 1003.41 374.873 1003.87 374.757 1004.32C374.743 1004.38 374.724 1004.43 374.702 1004.48C378.78 1005.76 382.123 1008.35 381.152 1016.3L379.463 1030.14C379.286 1031.6 378.54 1032.87 377.416 1033.64C376.344 1034.37 375.041 1034.59 373.745 1034.25C369.451 1033.14 368.461 1030.61 367.203 1026.58C366.082 1022.99 366.039 1022.85 361.704 1021.71L358.568 1020.9ZM362.134 1020.07C367.081 1021.38 367.536 1021.97 368.815 1026.08C370.029 1029.97 370.711 1031.72 374.167 1032.62C374.985 1032.83 375.801 1032.69 376.465 1032.24C377.197 1031.74 377.666 1030.92 377.787 1029.94L379.475 1016.1C379.902 1012.6 379.464 1010.11 378.137 1008.47C376.886 1006.92 374.912 1006.24 373.146 1005.79L356.199 1001.41C354.433 1000.96 352.379 1000.59 350.536 1001.34C348.58 1002.14 346.989 1004.11 345.671 1007.38L340.452 1020.3C340.08 1021.22 340.095 1022.17 340.495 1022.96C340.857 1023.68 341.506 1024.19 342.324 1024.4C345.78 1025.29 347.228 1024.08 350.171 1021.27C353.279 1018.29 353.97 1017.99 358.984 1019.26L362.134 1020.07Z" fill="black" fill-opacity="0.5"/>
</g>
<g opacity="0.5" clip-path="url(#clip3)">
<path d="M141.601 264.236C140.806 261.658 142.252 258.923 144.83 258.129L148.832 256.895C149.937 256.554 151.109 257.174 151.449 258.279C151.79 259.384 151.17 260.556 150.065 260.897L146.064 262.13C145.695 262.244 145.489 262.634 145.602 263.003L146.836 267.004C146.949 267.373 147.34 267.579 147.708 267.466L149.042 267.055C151.621 266.26 154.355 267.706 155.15 270.284L156.384 274.286C157.178 276.864 155.733 279.599 153.154 280.394L149.152 281.627C148.047 281.968 146.875 281.348 146.535 280.243C146.194 279.138 146.814 277.966 147.919 277.625L151.921 276.392C152.289 276.278 152.495 275.888 152.382 275.519L151.148 271.518C151.035 271.149 150.644 270.943 150.276 271.056L148.942 271.467C146.364 272.262 143.629 270.816 142.834 268.238L141.601 264.236Z" fill="#212121"/>
<path d="M137.444 262.596C137.103 261.491 135.931 260.872 134.826 261.212C133.721 261.553 133.101 262.725 133.442 263.83L138.376 279.837C138.49 280.205 138.283 280.596 137.915 280.709L134.58 281.737C133.475 282.078 132.855 283.25 133.196 284.355C133.537 285.46 134.709 286.08 135.814 285.739L139.148 284.711C141.727 283.916 143.173 281.182 142.378 278.603L137.444 262.596Z" fill="#212121"/>
<path d="M108.143 259.943C106.667 255.155 109.352 250.076 114.141 248.6L144.82 239.143C149.609 237.667 154.687 240.352 156.163 245.141L165.621 275.82C167.097 280.609 164.411 285.687 159.623 287.163L128.943 296.621C124.155 298.097 119.076 295.411 117.6 290.623L108.143 259.943ZM115.374 252.602C112.796 253.397 111.35 256.131 112.145 258.71L121.602 289.389C122.397 291.968 125.131 293.414 127.71 292.619L158.389 283.162C160.968 282.367 162.414 279.632 161.619 277.054L152.162 246.374C151.367 243.796 148.632 242.35 146.054 243.145L115.374 252.602Z" fill="#212121"/>
</g>
</g>
<defs>
<clipPath id="clip0">
<rect width="1920" height="1080" fill="white"/>
</clipPath>
<clipPath id="clip1">
<rect width="61.8408" height="61.8408" fill="white" transform="translate(611.157 789.615) rotate(-15)"/>
</clipPath>
<clipPath id="clip2">
<rect width="42" height="42" fill="white" transform="translate(346.495 990) rotate(14.4702)"/>
</clipPath>
<clipPath id="clip3">
<rect width="67" height="67" fill="white" transform="translate(95 245.737) rotate(-17.1322)"/>
</clipPath>
</defs>
</svg>
