<?xml version="1.0" encoding="iso-8859-1"?>
<!-- Generator: Adobe Illustrator 19.0.0, SVG Export Plug-In . SVG Version: 6.00 Build 0)  -->
<svg version="1.1" id="Layer_1" xmlns="http://www.w3.org/2000/svg" xmlns:xlink="http://www.w3.org/1999/xlink" x="0px" y="0px"
	 viewBox="0 0 512 512" style="enable-background:new 0 0 512 512;" xml:space="preserve">
<path style="fill:#AC92EC;" d="M469.344,266.664v-85.328h-42.656v-42.672H384v-21.328h42.688v-64h-64v42.656H320v42.672H192V95.992
	h-42.656V53.336h-64v64H128v21.328H85.344v42.672H42.688v85.328H0v149.328h64v-85.328h21.344v85.328H128v42.672h106.688v-64h-85.344
	v-21.328h213.344v21.328h-85.344v64H384v-42.672h42.688v-85.328H448v85.328h64V266.664H469.344z M192,245.336h-64v-64h64V245.336z
	 M384,245.336h-64v-64h64V245.336z"/>
<g>
</g>
<g>
</g>
<g>
</g>
<g>
</g>
<g>
</g>
<g>
</g>
<g>
</g>
<g>
</g>
<g>
</g>
<g>
</g>
<g>
</g>
<g>
</g>
<g>
</g>
<g>
</g>
<g>
</g>
</svg>
