<svg width="128" height="128" viewBox="0 0 128 128" fill="none" xmlns="http://www.w3.org/2000/svg">
<g clip-path="url(#clip0)">
<path d="M127.749 23.38C127.749 17.521 122.977 12.749 117.113 12.749C111.249 12.749 106.481 17.517 106.481 23.38C106.481 27.213 108.538 30.552 111.585 32.419L91.251 52.647L70.358 31.744C72.858 29.795 74.504 26.792 74.504 23.38C74.504 17.521 69.736 12.749 63.872 12.749C58.008 12.749 53.238 17.517 53.238 23.38C53.238 26.787 54.881 29.795 57.385 31.744L36.46 52.668L15.823 32.091C19.058 30.264 21.265 26.836 21.265 22.868C21.265 17.006 16.497 12.234 10.634 12.234C4.771 12.234 0 17.001 0 22.869C0 26.987 2.381 30.531 5.822 32.295V111.397C5.822 113.633 7.636 115.447 9.872 115.447H37.152C37.397 115.495 37.64 115.515 37.882 115.515C38.125 115.515 38.367 115.494 38.61 115.447H117.861C120.097 115.447 121.912 113.634 121.912 111.397V32.803C125.371 31.042 127.749 27.501 127.749 23.38ZM117.113 20.849C118.51 20.849 119.649 21.983 119.649 23.38C119.649 24.777 118.52 25.911 117.113 25.911C115.72 25.911 114.582 24.777 114.582 23.38C114.582 21.983 115.731 20.849 117.113 20.849ZM113.827 41.626V75.215L96.995 58.377L113.827 41.626ZM84.391 70.907L91.251 64.083L113.832 86.664V100.344L84.391 70.907ZM63.877 20.849C65.269 20.849 66.413 21.983 66.413 23.38C66.413 24.777 65.274 25.911 63.877 25.911C62.48 25.911 61.343 24.777 61.343 23.38C61.343 21.983 62.49 20.849 63.877 20.849ZM63.877 36.711L85.524 58.36L78.669 65.189L66.804 53.323C65.222 51.741 62.651 51.741 61.069 53.323L49.109 65.286L42.19 58.393L63.877 36.711ZM72.926 70.896L63.829 79.951L54.853 71.007L63.948 61.911L72.926 70.896ZM13.927 86.664L36.471 64.115L43.384 71.012L13.927 100.469V86.664ZM13.927 75.215V41.642L30.731 58.403L13.927 75.215ZM10.644 20.345C12.037 20.345 13.175 21.479 13.175 22.879C13.175 24.276 12.041 25.41 10.644 25.41C9.244 25.41 8.11 24.276 8.11 22.879C8.105 21.479 9.239 20.345 10.644 20.345ZM36.289 107.346H18.507L49.124 76.729L58.089 85.662L36.289 107.346ZM47.775 107.346L63.825 91.378L79.84 107.346H47.775ZM69.567 85.672L78.659 76.623L109.377 107.346H91.299L69.567 85.672Z" fill="white"/>
</g>
<defs>
<clipPath id="clip0">
<rect width="127.749" height="127.749" fill="white"/>
</clipPath>
</defs>
</svg>
